<svg width="324" height="56" viewBox="0 0 324 56" fill="none" xmlns="http://www.w3.org/2000/svg">
<path d="M42.6 18.225C42.1 13.525 40.45 9.875 37.65 7.275C34.9 4.675 31.35 3.375 27 3.375C24.35 3.375 21.85 3.95 19.5 5.1C17.2 6.2 15.175 7.8 13.425 9.9C11.675 12 10.3 14.525 9.3 17.475C8.3 20.425 7.8 23.75 7.8 27.45C7.8 32.15 8.7 36.3 10.5 39.9C12.3 43.5 14.725 46.3 17.775 48.3C20.825 50.3 24.2 51.3 27.9 51.3C31.15 51.3 34.35 50.575 37.5 49.125C40.65 47.625 43.225 45.475 45.225 42.675L47.175 44.25C45.025 47.2 42.7 49.475 40.2 51.075C37.7 52.675 35.2 53.75 32.7 54.3C30.25 54.9 28 55.2 25.95 55.2C22.2 55.2 18.75 54.525 15.6 53.175C12.5 51.825 9.8 49.95 7.5 47.55C5.25 45.1 3.5 42.275 2.25 39.075C1.05 35.825 0.45 32.325 0.45 28.575C0.45 25.025 0.975 21.575 2.025 18.225C3.125 14.875 4.75 11.85 6.9 9.15C9.05 6.45 11.75 4.3 15 2.7C18.3 1.1 22.125 0.299998 26.475 0.299998C29.275 0.299998 31.925 0.674998 34.425 1.425C36.925 2.175 39.325 3.325 41.625 4.875L41.25 0.824996H45.3V18.225H42.6ZM71.3414 55.2C67.8414 55.2 64.6664 54.4 61.8164 52.8C58.9664 51.15 56.6914 48.9 54.9914 46.05C53.3414 43.15 52.5164 39.85 52.5164 36.15C52.5164 32.2 53.3414 28.65 54.9914 25.5C56.6414 22.35 58.8914 19.875 61.7414 18.075C64.5914 16.225 67.7914 15.3 71.3414 15.3C74.8414 15.3 78.0164 16.15 80.8664 17.85C83.7164 19.5 85.9914 21.75 87.6914 24.6C89.3914 27.45 90.2414 30.7 90.2414 34.35C90.2414 38.2 89.3914 41.725 87.6914 44.925C86.0414 48.075 83.7914 50.575 80.9414 52.425C78.0914 54.275 74.8914 55.2 71.3414 55.2ZM71.9414 52.2C74.5914 52.2 76.6914 51.45 78.2414 49.95C79.7914 48.45 80.8914 46.5 81.5414 44.1C82.2414 41.7 82.5914 39.175 82.5914 36.525C82.5914 34.275 82.3664 32.075 81.9164 29.925C81.5164 27.725 80.8664 25.75 79.9664 24C79.0664 22.2 77.8914 20.775 76.4414 19.725C75.0414 18.675 73.3414 18.15 71.3414 18.15C68.7414 18.15 66.6164 18.9 64.9664 20.4C63.3164 21.9 62.0914 23.85 61.2914 26.25C60.5414 28.65 60.1664 31.225 60.1664 33.975C60.1664 37.075 60.5914 40.025 61.4414 42.825C62.2914 45.575 63.5914 47.825 65.3414 49.575C67.0914 51.325 69.2914 52.2 71.9414 52.2ZM115.213 55.2C111.713 55.2 108.538 54.4 105.688 52.8C102.838 51.15 100.563 48.9 98.8635 46.05C97.2135 43.15 96.3885 39.85 96.3885 36.15C96.3885 32.2 97.2135 28.65 98.8635 25.5C100.513 22.35 102.763 19.875 105.613 18.075C108.463 16.225 111.663 15.3 115.213 15.3C118.713 15.3 121.888 16.15 124.738 17.85C127.588 19.5 129.863 21.75 131.563 24.6C133.263 27.45 134.113 30.7 134.113 34.35C134.113 38.2 133.263 41.725 131.563 44.925C129.913 48.075 127.663 50.575 124.813 52.425C121.963 54.275 118.763 55.2 115.213 55.2ZM115.813 52.2C118.463 52.2 120.563 51.45 122.113 49.95C123.663 48.45 124.763 46.5 125.413 44.1C126.113 41.7 126.463 39.175 126.463 36.525C126.463 34.275 126.238 32.075 125.788 29.925C125.388 27.725 124.738 25.75 123.838 24C122.938 22.2 121.763 20.775 120.313 19.725C118.913 18.675 117.213 18.15 115.213 18.15C112.613 18.15 110.488 18.9 108.838 20.4C107.188 21.9 105.963 23.85 105.163 26.25C104.413 28.65 104.038 31.225 104.038 33.975C104.038 37.075 104.463 40.025 105.313 42.825C106.163 45.575 107.463 47.825 109.213 49.575C110.963 51.325 113.163 52.2 115.813 52.2ZM139.479 54V51.525C141.379 51.425 142.679 51 143.379 50.25C144.079 49.45 144.454 48.375 144.504 47.025C144.604 45.625 144.654 44.05 144.654 42.3V9.9C144.654 8.9 144.679 7.95 144.729 7.05C144.779 6.1 144.829 5.25 144.879 4.5C143.979 4.55 143.079 4.6 142.179 4.65C141.279 4.7 140.379 4.75 139.479 4.8V1.5H156.354V3.975C154.504 4.025 153.204 4.45 152.454 5.25C151.754 6.05 151.354 7.125 151.254 8.475C151.204 9.825 151.179 11.4 151.179 13.2V25.5H156.804L166.179 10.725C166.829 9.725 167.629 8.625 168.579 7.425C169.529 6.225 170.504 5.225 171.504 4.425C170.754 4.475 169.979 4.5 169.179 4.5C168.429 4.5 167.679 4.525 166.929 4.575V1.5H183.054V3.975C180.954 4.125 179.079 4.475 177.429 5.025C175.779 5.575 174.204 6.55 172.704 7.95C171.204 9.3 169.604 11.35 167.904 14.1L160.554 25.8C162.004 26.65 163.179 27.65 164.079 28.8C164.979 29.9 165.879 31.025 166.779 32.175L175.179 43.35C177.079 45.85 178.629 47.7 179.829 48.9C181.079 50.05 182.179 50.775 183.129 51.075C184.129 51.375 185.154 51.525 186.204 51.525V54H177.054C176.554 54 175.879 53.65 175.029 52.95C174.229 52.25 173.354 51.35 172.404 50.25C171.454 49.1 170.479 47.9 169.479 46.65L160.479 34.5C159.529 33.25 158.579 32.075 157.629 30.975C156.679 29.825 155.754 28.975 154.854 28.425L151.179 28.5V45.075C151.179 46.425 151.154 47.6 151.104 48.6C151.104 49.55 151.054 50.35 150.954 51C151.854 50.95 152.754 50.9 153.654 50.85C154.554 50.8 155.454 50.75 156.354 50.7V54H139.479ZM207.551 3.975C205.701 4.025 204.401 4.45 203.651 5.25C202.951 6.05 202.551 7.125 202.451 8.475C202.401 9.825 202.376 11.4 202.376 13.2V45.075C202.376 46.425 202.351 47.6 202.301 48.6C202.301 49.55 202.251 50.35 202.151 51C203.051 50.95 203.951 50.9 204.851 50.85C205.751 50.8 206.651 50.75 207.551 50.7V54H190.676V51.525C192.576 51.425 193.876 51 194.576 50.25C195.276 49.45 195.651 48.375 195.701 47.025C195.801 45.625 195.851 44.05 195.851 42.3V9.9C195.851 8.9 195.876 7.95 195.926 7.05C195.976 6.1 196.026 5.25 196.076 4.5C195.176 4.55 194.276 4.6 193.376 4.65C192.476 4.7 191.576 4.75 190.676 4.8V1.5H207.551V3.975ZM256.823 55.2L226.898 15C226.448 14.4 225.998 13.825 225.548 13.275C225.148 12.675 224.723 12.075 224.273 11.475H224.198L224.423 43.575C224.423 44.825 224.423 46.075 224.423 47.325C224.423 48.575 224.373 49.8 224.273 51C225.173 50.95 226.073 50.9 226.973 50.85C227.873 50.8 228.773 50.75 229.673 50.7V54H215.948V51.525C217.498 51.525 218.598 51.2 219.248 50.55C219.948 49.85 220.398 49.05 220.598 48.15C220.798 47.2 220.898 46.35 220.898 45.6L220.973 9.525C220.973 8.675 220.973 7.825 220.973 6.975C220.973 6.125 220.973 5.3 220.973 4.5C220.173 4.55 219.348 4.6 218.498 4.65C217.648 4.7 216.798 4.75 215.948 4.8V1.5H224.873L252.998 39.15C253.648 40 254.273 40.85 254.873 41.7C255.523 42.55 256.173 43.4 256.823 44.25H256.898L256.973 9.9C256.973 8.9 256.998 7.95 257.048 7.05C257.098 6.1 257.148 5.25 257.198 4.5C256.298 4.55 255.398 4.6 254.498 4.65C253.598 4.7 252.698 4.75 251.798 4.8V1.5H265.598V3.975C263.748 4.025 262.473 4.45 261.773 5.25C261.073 6.05 260.698 7.125 260.648 8.475C260.598 9.825 260.573 11.4 260.573 13.2L260.423 55.2H256.823ZM297.461 55.2C292.461 55.2 288.036 54.15 284.186 52.05C280.336 49.95 277.336 46.925 275.186 42.975C273.036 39.025 271.961 34.325 271.961 28.875C271.961 25.325 272.486 21.875 273.536 18.525C274.636 15.125 276.261 12.05 278.411 9.3C280.611 6.55 283.336 4.375 286.586 2.775C289.886 1.125 293.711 0.299998 298.061 0.299998C299.861 0.299998 301.686 0.474998 303.536 0.824996C305.386 1.125 307.161 1.6 308.861 2.25C310.611 2.85 312.186 3.575 313.586 4.425L313.286 0.824996H317.411V18H314.711C314.511 14.85 313.661 12.2 312.161 10.05C310.711 7.85 308.811 6.175 306.461 5.025C304.111 3.875 301.486 3.3 298.586 3.3C295.936 3.3 293.436 3.9 291.086 5.1C288.786 6.25 286.736 7.9 284.936 10.05C283.186 12.15 281.811 14.65 280.811 17.55C279.811 20.45 279.311 23.65 279.311 27.15C279.311 31.85 280.161 36.05 281.861 39.75C283.561 43.45 285.911 46.35 288.911 48.45C291.961 50.55 295.461 51.6 299.411 51.6C300.761 51.6 302.161 51.475 303.611 51.225C305.111 50.975 306.586 50.575 308.036 50.025C309.536 49.425 310.936 48.7 312.236 47.85V38.7C312.236 37.5 312.236 36.3 312.236 35.1C312.236 33.85 312.236 32.625 312.236 31.425C311.386 31.475 310.511 31.525 309.611 31.575C308.711 31.625 307.836 31.675 306.986 31.725V28.425H323.936V30.9C322.536 30.9 321.461 31.275 320.711 32.025C319.961 32.725 319.436 33.6 319.136 34.65C318.836 35.65 318.661 36.65 318.611 37.65C318.561 38.6 318.536 39.325 318.536 39.825V51.3H316.511C315.711 51.3 314.611 51.45 313.211 51.75C311.811 52.05 310.211 52.55 308.411 53.25C306.861 53.85 305.061 54.325 303.011 54.675C300.961 55.025 299.111 55.2 297.461 55.2Z" fill="#AC3B61"/>
</svg>
